<svg width="148" height="60" viewBox="0 0 148 60" fill="none" xmlns="http://www.w3.org/2000/svg">
<rect x="0.5" y="0.5" width="147" height="59" rx="4.5" stroke="#C8CBD0"/>
<path fill-rule="evenodd" clip-rule="evenodd" d="M22.978 25.9632C22.978 22.6698 25.6479 20 28.9413 20C32.2347 20 34.9045 22.6698 34.9045 25.9632C34.9045 29.2566 32.2347 31.9265 28.9413 31.9265C25.6479 31.9265 22.978 29.2566 22.978 25.9632ZM28.9413 22C26.7524 22 24.978 23.7744 24.978 25.9632C24.978 28.1521 26.7524 29.9265 28.9413 29.9265C31.1301 29.9265 32.9045 28.1521 32.9045 25.9632C32.9045 23.7744 31.1301 22 28.9413 22Z" fill="#FE9015"/>
<path fill-rule="evenodd" clip-rule="evenodd" d="M28.0588 32C24.6977 32 22 34.678 22 37.9485H20C20 33.5439 23.623 30 28.0588 30H29.8235C34.2594 30 37.8824 33.5439 37.8824 37.9485H35.8824C35.8824 34.678 33.1846 32 29.8235 32H28.0588Z" fill="#FE9015"/>
<path d="M58.954 24.2V34H57.554V29.632H51.926V34H50.526V24.2H51.926V28.414H57.554V24.2H58.954ZM61.7864 26.58H63.1304V31.984L67.6804 26.58H68.8984V34H67.5544V28.596L63.0184 34H61.7864V26.58ZM74.3911 30.864H72.8511V34H71.5071V26.58H72.8511V29.716H74.4191L76.8271 26.58H78.2691L75.4551 30.15L78.4651 34H76.8831L74.3911 30.864ZM82.8062 34.084C82.0688 34.084 81.4062 33.9207 80.8182 33.594C80.2302 33.2673 79.7682 32.8193 79.4322 32.25C79.1055 31.6713 78.9422 31.018 78.9422 30.29C78.9422 29.562 79.1055 28.9133 79.4322 28.344C79.7682 27.7653 80.2302 27.3173 80.8182 27C81.4062 26.6733 82.0688 26.51 82.8062 26.51C83.5435 26.51 84.2015 26.6733 84.7802 27C85.3682 27.3173 85.8255 27.7653 86.1522 28.344C86.4882 28.9133 86.6562 29.562 86.6562 30.29C86.6562 31.018 86.4882 31.6713 86.1522 32.25C85.8255 32.8193 85.3682 33.2673 84.7802 33.594C84.2015 33.9207 83.5435 34.084 82.8062 34.084ZM82.8062 32.908C83.2822 32.908 83.7068 32.8007 84.0802 32.586C84.4628 32.362 84.7615 32.054 84.9762 31.662C85.1908 31.2607 85.2982 30.8033 85.2982 30.29C85.2982 29.7767 85.1908 29.324 84.9762 28.932C84.7615 28.5307 84.4628 28.2227 84.0802 28.008C83.7068 27.7933 83.2822 27.686 82.8062 27.686C82.3302 27.686 81.9008 27.7933 81.5182 28.008C81.1448 28.2227 80.8462 28.5307 80.6222 28.932C80.4075 29.324 80.3002 29.7767 80.3002 30.29C80.3002 30.8033 80.4075 31.2607 80.6222 31.662C80.8462 32.054 81.1448 32.362 81.5182 32.586C81.9008 32.8007 82.3302 32.908 82.8062 32.908ZM94.9122 26.58V34H93.5682V27.756H90.3762L90.2922 29.408C90.2456 30.4067 90.1569 31.242 90.0262 31.914C89.8956 32.5767 89.6809 33.1087 89.3822 33.51C89.0836 33.9113 88.6682 34.112 88.1362 34.112C87.8936 34.112 87.6182 34.07 87.3102 33.986L87.3942 32.852C87.5156 32.88 87.6276 32.894 87.7302 32.894C88.1036 32.894 88.3836 32.7307 88.5702 32.404C88.7569 32.0773 88.8782 31.69 88.9342 31.242C88.9902 30.794 89.0416 30.1547 89.0882 29.324L89.2142 26.58H94.9122ZM100.157 26.51C101.184 26.51 101.968 26.762 102.509 27.266C103.06 27.77 103.335 28.5213 103.335 29.52V34H102.061V33.02C101.837 33.3653 101.515 33.6313 101.095 33.818C100.684 33.9953 100.194 34.084 99.625 34.084C98.7943 34.084 98.127 33.8833 97.623 33.482C97.1283 33.0807 96.881 32.5533 96.881 31.9C96.881 31.2467 97.119 30.724 97.595 30.332C98.071 29.9307 98.827 29.73 99.863 29.73H101.991V29.464C101.991 28.8853 101.823 28.442 101.487 28.134C101.151 27.826 100.656 27.672 100.003 27.672C99.5643 27.672 99.135 27.7467 98.715 27.896C98.295 28.036 97.9403 28.2273 97.651 28.47L97.091 27.462C97.4737 27.154 97.931 26.9207 98.463 26.762C98.995 26.594 99.5597 26.51 100.157 26.51ZM99.849 33.048C100.362 33.048 100.806 32.936 101.179 32.712C101.552 32.4787 101.823 32.152 101.991 31.732V30.696H99.919C98.7803 30.696 98.211 31.0787 98.211 31.844C98.211 32.2173 98.3557 32.5113 98.645 32.726C98.9343 32.9407 99.3357 33.048 99.849 33.048ZM105.755 26.58H107.099V31.984L111.649 26.58H112.867V34H111.523V28.596L106.987 34H105.755V26.58ZM109.227 25.614C108.536 25.614 108 25.4507 107.617 25.124C107.234 24.788 107.038 24.3073 107.029 23.682H107.939C107.948 24.0273 108.065 24.3073 108.289 24.522C108.522 24.7273 108.83 24.83 109.213 24.83C109.596 24.83 109.904 24.7273 110.137 24.522C110.37 24.3073 110.492 24.0273 110.501 23.682H111.439C111.43 24.3073 111.229 24.788 110.837 25.124C110.445 25.4507 109.908 25.614 109.227 25.614Z" fill="#333333"/>
</svg>
