<svg width="133" height="60" viewBox="0 0 133 60" fill="none" xmlns="http://www.w3.org/2000/svg">
<rect x="0.5" y="0.5" width="132" height="59" rx="4.5" stroke="#C8CBD0"/>
<path d="M39 27H37.58L33.868 20.504L32.132 21.496L35.277 27H24.723L27.869 21.496L26.132 20.504L22.42 27H21C20.688 27 20.395 27.146 20.205 27.393C20.016 27.641 19.953 27.963 20.035 28.263L22.834 38.527C23.071 39.395 23.865 40 24.764 40H35.237C36.135 40 36.929 39.395 37.167 38.525L39.966 28.262C40.048 27.962 39.986 27.64 39.796 27.392C39.605 27.146 39.312 27 39 27ZM35.236 38V39V38H24.764L22.31 29H37.69L35.236 38Z" fill="#FE9015"/>
<path d="M27 31H29V36H27V31ZM31 31H33V36H31V31Z" fill="#FE9015"/>
<path d="M60.9 29.05C61.544 29.05 62.118 29.1713 62.622 29.414C63.1353 29.6567 63.5367 30.0067 63.826 30.464C64.1153 30.912 64.26 31.43 64.26 32.018C64.26 32.634 64.106 33.1753 63.798 33.642C63.4993 34.1087 63.084 34.4727 62.552 34.734C62.0293 34.986 61.4413 35.112 60.788 35.112C59.472 35.112 58.4547 34.6873 57.736 33.838C57.0267 32.9887 56.672 31.7847 56.672 30.226C56.672 29.134 56.8633 28.2053 57.246 27.44C57.638 26.6653 58.1793 26.082 58.87 25.69C59.57 25.2887 60.382 25.088 61.306 25.088C61.782 25.088 62.23 25.1393 62.65 25.242C63.07 25.3353 63.434 25.4753 63.742 25.662L63.21 26.754C62.7433 26.446 62.118 26.292 61.334 26.292C60.3167 26.292 59.5187 26.6093 58.94 27.244C58.3613 27.8693 58.072 28.784 58.072 29.988C58.072 30.1373 58.0767 30.254 58.086 30.338C58.366 29.918 58.7487 29.6007 59.234 29.386C59.7287 29.162 60.284 29.05 60.9 29.05ZM60.732 33.978C61.376 33.978 61.8987 33.8053 62.3 33.46C62.7013 33.1147 62.902 32.6527 62.902 32.074C62.902 31.4953 62.6967 31.038 62.286 30.702C61.8847 30.3567 61.3433 30.184 60.662 30.184C60.2233 30.184 59.8313 30.268 59.486 30.436C59.15 30.604 58.884 30.8327 58.688 31.122C58.5013 31.4113 58.408 31.7333 58.408 32.088C58.408 32.4333 58.4967 32.7507 58.674 33.04C58.8607 33.32 59.1267 33.5487 59.472 33.726C59.8267 33.894 60.2467 33.978 60.732 33.978ZM71.3046 29.862C71.8646 30.0767 72.294 30.3847 72.5926 30.786C72.8913 31.1873 73.0406 31.668 73.0406 32.228C73.0406 32.816 72.882 33.3293 72.5646 33.768C72.2473 34.1973 71.7946 34.5287 71.2066 34.762C70.6186 34.9953 69.928 35.112 69.1346 35.112C68.3506 35.112 67.6646 34.9953 67.0766 34.762C66.498 34.5287 66.05 34.1973 65.7326 33.768C65.4153 33.3293 65.2566 32.816 65.2566 32.228C65.2566 31.668 65.4013 31.1873 65.6906 30.786C65.9893 30.3847 66.4186 30.0767 66.9786 29.862C66.5306 29.6473 66.19 29.3627 65.9566 29.008C65.7233 28.6533 65.6066 28.2333 65.6066 27.748C65.6066 27.2067 65.7513 26.7353 66.0406 26.334C66.3393 25.9327 66.7546 25.6247 67.2866 25.41C67.8186 25.1953 68.4346 25.088 69.1346 25.088C69.844 25.088 70.4646 25.1953 70.9966 25.41C71.538 25.6247 71.9533 25.9327 72.2426 26.334C72.5413 26.7353 72.6906 27.2067 72.6906 27.748C72.6906 28.224 72.5693 28.644 72.3266 29.008C72.0933 29.3627 71.7526 29.6473 71.3046 29.862ZM69.1346 26.222C68.472 26.222 67.9493 26.3667 67.5666 26.656C67.184 26.936 66.9926 27.3187 66.9926 27.804C66.9926 28.2893 67.1793 28.672 67.5526 28.952C67.9353 29.232 68.4626 29.372 69.1346 29.372C69.816 29.372 70.348 29.232 70.7306 28.952C71.1226 28.672 71.3186 28.2893 71.3186 27.804C71.3186 27.3187 71.118 26.936 70.7166 26.656C70.3246 26.3667 69.7973 26.222 69.1346 26.222ZM69.1346 33.978C69.9093 33.978 70.5206 33.8193 70.9686 33.502C71.4166 33.1753 71.6406 32.7367 71.6406 32.186C71.6406 31.6447 71.4166 31.22 70.9686 30.912C70.5206 30.5947 69.9093 30.436 69.1346 30.436C68.36 30.436 67.7533 30.5947 67.3146 30.912C66.876 31.22 66.6566 31.6447 66.6566 32.186C66.6566 32.7367 66.876 33.1753 67.3146 33.502C67.7533 33.8193 68.36 33.978 69.1346 33.978ZM77.5004 25.088C78.8164 25.088 79.8291 25.5127 80.5384 26.362C81.2571 27.2113 81.6164 28.4153 81.6164 29.974C81.6164 31.066 81.4204 31.9993 81.0284 32.774C80.6457 33.5393 80.1044 34.1227 79.4044 34.524C78.7137 34.916 77.9064 35.112 76.9824 35.112C76.5064 35.112 76.0584 35.0653 75.6384 34.972C75.2184 34.8693 74.8544 34.7247 74.5464 34.538L75.0784 33.446C75.5544 33.754 76.1844 33.908 76.9684 33.908C77.9857 33.908 78.7791 33.5953 79.3484 32.97C79.9271 32.3353 80.2164 31.416 80.2164 30.212V29.862C79.9364 30.282 79.5491 30.604 79.0544 30.828C78.5597 31.0427 78.0044 31.15 77.3884 31.15C76.7444 31.15 76.1657 31.0287 75.6524 30.786C75.1484 30.5433 74.7517 30.198 74.4624 29.75C74.1824 29.2927 74.0424 28.77 74.0424 28.182C74.0424 27.566 74.1917 27.0247 74.4904 26.558C74.7984 26.0913 75.2137 25.732 75.7364 25.48C76.2591 25.2187 76.8471 25.088 77.5004 25.088ZM77.6264 30.016C78.0651 30.016 78.4571 29.932 78.8024 29.764C79.1477 29.596 79.4137 29.3673 79.6004 29.078C79.7964 28.7887 79.8944 28.4667 79.8944 28.112C79.8944 27.7667 79.8011 27.454 79.6144 27.174C79.4371 26.8847 79.1711 26.656 78.8164 26.488C78.4711 26.3107 78.0511 26.222 77.5564 26.222C76.9124 26.222 76.3897 26.3947 75.9884 26.74C75.5964 27.0853 75.4004 27.5473 75.4004 28.126C75.4004 28.7047 75.6011 29.1667 76.0024 29.512C76.4037 29.848 76.9451 30.016 77.6264 30.016ZM86.967 35.112C86.1923 35.112 85.5017 34.916 84.895 34.524C84.2977 34.1227 83.8263 33.544 83.481 32.788C83.1357 32.032 82.963 31.136 82.963 30.1C82.963 29.064 83.1357 28.168 83.481 27.412C83.8263 26.656 84.2977 26.082 84.895 25.69C85.5017 25.2887 86.1923 25.088 86.967 25.088C87.7323 25.088 88.4137 25.2887 89.011 25.69C89.6177 26.082 90.0937 26.656 90.439 27.412C90.7843 28.168 90.957 29.064 90.957 30.1C90.957 31.136 90.7843 32.032 90.439 32.788C90.0937 33.544 89.6177 34.1227 89.011 34.524C88.4137 34.916 87.7323 35.112 86.967 35.112ZM86.967 33.866C87.751 33.866 88.3763 33.544 88.843 32.9C89.319 32.256 89.557 31.3227 89.557 30.1C89.557 28.8773 89.319 27.944 88.843 27.3C88.3763 26.656 87.751 26.334 86.967 26.334C86.1737 26.334 85.539 26.656 85.063 27.3C84.5963 27.944 84.363 28.8773 84.363 30.1C84.363 31.3227 84.5963 32.256 85.063 32.9C85.539 33.544 86.1737 33.866 86.967 33.866ZM98.6507 31.738V32.564H101.759V33.362H98.6507V35H97.2367V33.362H95.8087V32.564H97.2367V25.2H101.087C102.365 25.2 103.364 25.4847 104.083 26.054C104.801 26.614 105.161 27.4167 105.161 28.462C105.161 29.5167 104.801 30.3287 104.083 30.898C103.364 31.458 102.365 31.738 101.087 31.738H98.6507ZM103.747 28.476C103.747 27.8133 103.518 27.3047 103.061 26.95C102.603 26.5953 101.945 26.418 101.087 26.418H98.6507V30.576H101.087C101.936 30.576 102.589 30.394 103.047 30.03C103.513 29.6567 103.747 29.1387 103.747 28.476Z" fill="#333333"/>
<circle cx="43" cy="16" r="8" fill="#ED1C22"/>
<path d="M46.6469 18.4931H45.1589V20.4011H43.6469V18.4931H39.0389V17.4131L43.1789 12.0011H44.8469L40.9469 17.1731H43.6949V15.4811H45.1589V17.1731H46.6469V18.4931Z" fill="white"/>
</svg>
