<svg width="134" height="61" viewBox="0 0 134 61" fill="none" xmlns="http://www.w3.org/2000/svg">
<path fill-rule="evenodd" clip-rule="evenodd" d="M19.2805 32.8398C18.3224 32.838 17.3802 33.0832 16.5455 33.5516C15.7835 32.8669 14.8468 32.4048 13.8384 32.2159C12.83 32.027 11.7888 32.1187 10.8293 32.4809C9.86973 32.8431 9.02897 33.4619 8.39934 34.2691C7.76971 35.0764 7.37557 36.0409 7.26023 37.0568C7.1449 38.0727 7.31282 39.1006 7.74555 40.0276C8.17828 40.9546 8.85908 41.7448 9.71315 42.3115C10.5672 42.8781 11.5615 43.1992 12.5868 43.2396C13.6121 43.2799 14.6287 43.0379 15.525 42.5401C16.1987 43.1429 17.0096 43.5733 17.8875 43.7943C18.7654 44.0152 19.6841 44.0201 20.5644 43.8084C21.4446 43.5967 22.2599 43.1748 22.94 42.5791C23.6201 41.9834 24.1446 41.2319 24.4682 40.3892C24.7917 39.5466 24.9047 38.6381 24.7974 37.7423C24.69 36.8464 24.3655 35.99 23.8519 35.247C23.3383 34.504 22.651 33.8966 21.8492 33.4772C21.0475 33.0578 20.1554 32.8391 19.2499 32.8398" fill="white"/>
<path fill-rule="evenodd" clip-rule="evenodd" d="M39.1399 15.4425C38.2817 15.4422 37.438 15.6629 36.6906 16.0831C36.0061 15.4717 35.1657 15.0601 34.2618 14.8936C33.3578 14.7271 32.4252 14.8121 31.5666 15.1392C30.7079 15.4664 29.9564 16.0231 29.3946 16.7481C28.8328 17.4731 28.4825 18.3384 28.3821 19.2488C28.2817 20.1593 28.4352 21.0797 28.8256 21.909C29.2161 22.7382 29.8284 23.4442 30.5953 23.9492C31.3622 24.4543 32.254 24.739 33.1727 24.772C34.0914 24.8049 35.0014 24.5849 35.8028 24.1361C36.4067 24.675 37.133 25.0596 37.9192 25.2566C38.7054 25.4537 39.5278 25.4573 40.3157 25.2672C41.1037 25.0772 41.8334 24.6991 42.442 24.1655C43.0507 23.632 43.52 22.9591 43.8096 22.2046C44.0992 21.4502 44.2004 20.6369 44.1044 19.8349C44.0084 19.0328 43.7181 18.2661 43.2586 17.6006C42.7991 16.9352 42.184 16.3911 41.4665 16.0151C40.749 15.6392 39.9505 15.4426 39.1399 15.4425Z" fill="white"/>
<path fill-rule="evenodd" clip-rule="evenodd" d="M54.0909 54.6403C50.8457 51.4882 48.274 46.1907 46.6616 39.8154L46.5595 39.368C46.4438 38.8935 46.335 38.4156 46.2329 37.9343L46.1615 37.6902C45.0429 32.2302 44.6211 26.6513 44.9063 21.0859C44.2197 18.9584 43.768 16.7627 43.5592 14.5377C42.9775 14.436 42.4673 14.3242 41.957 14.2022C41.4467 14.0801 40.9365 13.9378 40.3956 13.7649C40.5037 13.5377 40.5597 13.2894 40.5597 13.0379C40.5597 12.7865 40.5037 12.5382 40.3956 12.3109C40.0681 12.5865 39.6822 12.7846 39.2668 12.8903C38.8514 12.9959 38.4174 13.0064 37.9974 12.921C38.7322 12.7685 39.12 11.9042 38.8138 10.8874C38.4975 11.9042 36.7014 12.4329 35.3237 11.833L34.691 11.5381C33.6704 11.0603 32.8132 10.6027 32.0989 10.2163C31.142 10.7664 30.2154 11.3671 29.3231 12.016C24.496 30.3896 25.6594 47.6447 32.1601 56.4197C29.9762 57.1213 30.9253 59.8768 32.8642 59.1447C33.083 59.5706 33.4454 59.906 33.8877 60.0919C34.3301 60.2779 34.8241 60.3025 35.2829 60.1615C35.5518 60.0915 35.797 59.9508 35.9927 59.754C36.1884 59.5572 36.3274 59.3117 36.3952 59.043C38.7832 58.494 37.3239 54.7318 35.0481 55.9926C34.4949 55.2264 34.0358 54.3969 33.6806 53.5218C32.8256 51.3441 32.2263 49.0751 31.8948 46.7601C31.6122 45.3071 31.5264 43.8229 31.6396 42.3472C32.3234 39.3578 38.7832 40.1001 40.263 42.4692C41.3553 44.2976 42.5654 46.0536 43.8858 47.7261C45.192 49.4139 46.5085 50.9188 47.6719 52.1695C49.9884 54.6606 51.7539 56.1858 51.7539 56.1858C49.1822 57.8025 51.5804 61.2698 53.7949 59.5718C54.0951 59.7695 54.4371 59.8955 54.7941 59.9399C55.1512 59.9844 55.5137 59.9461 55.8535 59.828C56.1933 59.7099 56.5011 59.5152 56.7529 59.2591C57.0048 59.003 57.1939 58.6925 57.3055 58.3516C57.404 57.86 57.3168 57.3494 57.0606 56.9179C58.3974 55.2707 56.0911 53.0541 54.1623 54.6606L54.0909 54.6403ZM28.6597 19.4895C28.632 18.6274 28.8613 17.7765 29.3188 17.0442C29.7763 16.312 30.4415 15.7313 31.2301 15.3757C32.0188 15.02 32.8956 14.9052 33.7496 15.0459C34.6037 15.1866 35.3968 15.5765 36.0286 16.1662C36.6603 16.7558 37.1025 17.5189 37.2991 18.3589C37.4957 19.1989 37.4379 20.0781 37.1331 20.8854C36.8283 21.6927 36.2901 22.3919 35.5866 22.8945C34.8831 23.3971 34.0458 23.6807 33.1806 23.7092C32.6056 23.7282 32.0325 23.6341 31.494 23.4323C30.9555 23.2305 30.4622 22.9249 30.0424 22.533C29.6225 22.1411 29.2843 21.6706 29.047 21.1484C28.8098 20.6261 28.6782 20.0625 28.6597 19.4895ZM35.8033 30.0134L34.7012 29.0576L34.2215 29.6169C32.0274 28.295 30.9967 24.2787 30.9967 24.2787C34.742 26.4444 41.0079 25.7835 41.0079 25.7835C41.0079 25.7835 38.3444 29.749 35.8135 30.0032L35.8033 30.0134ZM40.5079 24.6244C39.9321 24.6441 39.3615 24.5107 38.8546 24.238C38.6678 24.1809 38.5013 24.0714 38.375 23.9228C37.7765 23.4455 37.3655 22.7737 37.2142 22.0249C37.0628 21.2761 37.1806 20.4981 37.547 19.8272C37.9134 19.1563 38.5051 18.6352 39.2183 18.3552C39.9315 18.0751 40.7209 18.054 41.4482 18.2956C42.1754 18.5371 42.7942 19.0259 43.1962 19.6763C43.5982 20.3267 43.7577 21.0973 43.6468 21.8531C43.5359 22.6088 43.1617 23.3017 42.5897 23.8102C42.0176 24.3187 41.2843 24.6105 40.5181 24.6345L40.5079 24.6244Z" fill="#F49822"/>
<path fill-rule="evenodd" clip-rule="evenodd" d="M36.4244 38.4423C34.4854 37.4255 32.8424 34.6598 34.118 30.979C34.4479 30.6348 34.7201 30.24 34.9242 29.8097C34.9957 29.6673 35.0569 29.5148 35.1181 29.3623C35.1549 30.0121 35.3398 30.645 35.659 31.2129C36.3835 34.2633 38.6083 33.8566 39.741 35.6461C40.7615 37.2832 39.0369 39.8252 36.4142 38.4423" fill="#CC1721"/>
<path fill-rule="evenodd" clip-rule="evenodd" d="M34.3854 32.1687C35.8447 35.1479 38.0593 34.2023 39.6513 35.8088C39.7993 35.9584 39.9233 36.1299 40.0186 36.3172C39.973 36.079 39.883 35.8514 39.7533 35.6461C38.6205 33.8566 36.3856 34.2633 35.6713 31.2129C35.3521 30.645 35.1671 30.0121 35.1304 29.3623C35.0692 29.5148 35.0079 29.6673 34.9365 29.8097C34.7325 30.2401 34.4603 30.6349 34.1303 30.979C34.0589 31.1824 33.9976 31.3857 33.9466 31.5891C34.078 31.7989 34.2283 31.9963 34.3956 32.1788" fill="#A31C25"/>
<path fill-rule="evenodd" clip-rule="evenodd" d="M32.6601 20.4041C32.6924 20.5443 32.6831 20.6909 32.6333 20.8259C32.5836 20.961 32.4955 21.0787 32.3798 21.1648C32.2641 21.2509 32.1258 21.3017 31.9817 21.3109C31.8376 21.3201 31.6939 21.2874 31.5681 21.2167C31.4423 21.146 31.3399 21.0405 31.2732 20.9129C31.2065 20.7852 31.1785 20.6411 31.1926 20.4979C31.2066 20.3547 31.2621 20.2186 31.3524 20.1063C31.4426 19.994 31.5637 19.9102 31.7008 19.8652C31.3689 19.8022 31.0256 19.8433 30.7181 19.9829C30.4107 20.1225 30.1543 20.3537 29.9842 20.6445C29.8142 20.9354 29.7389 21.2717 29.7688 21.607C29.7986 21.9424 29.9321 22.2602 30.1509 22.5167C30.3697 22.7733 30.6629 22.9559 30.9902 23.0394C31.3175 23.1228 31.6628 23.1031 31.9783 22.9829C32.2939 22.8627 32.5643 22.6479 32.7522 22.3681C32.9401 22.0884 33.0363 21.7574 33.0275 21.4209C33.0143 21.045 32.8699 20.6854 32.6193 20.4041" fill="#322726"/>
<path fill-rule="evenodd" clip-rule="evenodd" d="M39.8028 22.8241C39.8028 23.0938 39.6953 23.3524 39.5039 23.5431C39.3125 23.7338 39.0529 23.8409 38.7823 23.8409C38.6708 23.8595 38.557 23.8595 38.4455 23.8409C38.2586 23.7838 38.0921 23.6744 37.9659 23.5257C37.8203 23.3509 37.7376 23.1325 37.7311 22.9055C37.7311 22.6358 37.8387 22.3772 38.03 22.1865C38.2214 21.9958 38.481 21.8887 38.7516 21.8887H38.9557C38.858 21.918 38.7729 21.9788 38.7138 22.0617C38.6546 22.1445 38.6249 22.2447 38.6292 22.3462C38.6292 22.4703 38.6786 22.5893 38.7667 22.677C38.8547 22.7647 38.9741 22.814 39.0986 22.814C39.2231 22.814 39.3425 22.7647 39.4306 22.677C39.5186 22.5893 39.5681 22.4703 39.5681 22.3462C39.572 22.3159 39.572 22.2851 39.5681 22.2547C39.7253 22.4321 39.8156 22.6587 39.8232 22.8953" fill="#322726"/>
<path fill-rule="evenodd" clip-rule="evenodd" d="M43.8858 47.7255H43.6817C40.32 48.3358 36.865 48.2074 33.5582 47.3493C32.9961 47.1787 32.447 46.968 31.9152 46.7189C31.6295 45.28 31.5368 43.8098 31.6397 42.3466C32.3234 39.3572 38.7833 40.0995 40.263 42.4686C41.3553 44.2971 42.5655 46.0531 43.8858 47.7255Z" fill="#C94918"/>
<path fill-rule="evenodd" clip-rule="evenodd" d="M57.6218 33.4908C57.0092 35.0624 56.0173 36.4593 54.7338 37.558C53.2137 39.0438 51.2141 39.9445 49.0904 40.1C48.267 40.1268 47.4444 40.0273 46.6513 39.8052L46.5493 39.3578L46.2227 37.9241L46.1615 37.6902C47.616 37.4156 48.9853 36.8039 50.1588 35.9047C51.3322 35.0054 52.277 33.8438 52.9167 32.5136C53.5564 31.1834 53.8731 29.7219 53.8413 28.2472C53.8095 26.7726 53.4301 25.326 52.7336 24.0244C53.7307 24.5837 54.6054 25.3359 55.3065 26.237C56.0075 27.138 56.5206 28.1696 56.8156 29.2711C57.0415 28.7071 57.2323 28.1298 57.3871 27.5425C57.6835 29.7615 57.4671 32.0186 56.7544 34.1416L57.6218 33.4908Z" fill="#C94918"/>
<path fill-rule="evenodd" clip-rule="evenodd" d="M34.7522 8.85351C33.8102 9.21391 32.9018 9.65623 32.0376 10.1754C31.0807 10.7254 30.1542 11.3262 29.2618 11.9751C27.5668 13.2059 25.9701 14.5657 24.4858 16.0423C23.4755 8.63998 26.5983 0.0683594 28.0882 0.0683594C28.3026 0.0683594 28.476 0.241215 28.6087 0.617431C29.6292 3.66783 34.7318 8.85351 34.7318 8.85351" fill="#C94918"/>
<path fill-rule="evenodd" clip-rule="evenodd" d="M34.7516 8.85352L34.6291 11.4972C33.6086 11.0193 32.7513 10.5617 32.037 10.1754C32.9012 9.65624 33.8095 9.21392 34.7516 8.85352Z" fill="#AA3D19"/>
<path fill-rule="evenodd" clip-rule="evenodd" d="M53.6635 16.6523C51.4118 19.9926 49.6329 23.6263 48.3772 27.4507C46.8155 25.5744 45.6369 23.4122 44.9075 21.0855C44.2209 18.9581 43.7692 16.7623 43.5604 14.5373C43.5604 14.0696 43.4686 13.6019 43.438 13.1341C43.4247 12.9515 43.4571 12.7684 43.5322 12.6013C43.6072 12.4341 43.7227 12.2881 43.8683 12.1763C44.0139 12.0645 44.185 11.9904 44.3663 11.9606C44.5477 11.9308 44.7336 11.9462 44.9075 12.0055C46.7852 12.6054 50.0713 13.612 52.7552 14.2323C53.0041 14.2902 53.235 14.4078 53.428 14.5747C53.621 14.7417 53.7702 14.953 53.8627 15.1904C53.9552 15.4278 53.9882 15.6841 53.9588 15.937C53.9294 16.19 53.8386 16.432 53.6941 16.6421" fill="#FE9015"/>
<path fill-rule="evenodd" clip-rule="evenodd" d="M35.4039 53.4605C34.761 54.2841 33.7098 53.552 33.669 53.5215C32.8139 51.3438 32.2146 49.0748 31.8831 46.7598C32.4149 47.0089 32.964 47.2196 33.5261 47.3902C33.4402 48.968 33.602 50.5495 34.0058 52.0776C35.0263 51.5692 36.0468 52.6369 35.4039 53.4706" fill="#C94918"/>
<path fill-rule="evenodd" clip-rule="evenodd" d="M46.8963 53.8368C46.706 53.8742 46.5089 53.8567 46.3281 53.7865C46.1474 53.7163 45.9905 53.5962 45.8758 53.4403C45.039 54.7316 43.4878 52.9522 44.9981 52.1489C44.4182 50.7313 43.9807 49.2599 43.6919 47.7563H43.896C45.2022 49.4442 46.5187 50.9491 47.6821 52.1998C48.2842 52.9217 47.5902 53.7148 46.9269 53.8673" fill="#C94918"/>
<path fill-rule="evenodd" clip-rule="evenodd" d="M36.1282 59.6121C28.8111 52.0471 27.1987 37.2425 30.4949 22.7836C29.8056 22.247 29.2933 21.517 29.0243 20.6876C28.7553 19.8582 28.7418 18.9675 28.9856 18.1304C29.2294 17.2933 29.7193 16.5482 30.3921 15.9911C31.065 15.4341 31.8899 15.0906 32.7605 15.0051C33.2197 13.7341 33.6891 12.5343 34.2198 11.3039C33.434 10.9176 32.6176 10.4905 32.0359 10.1753C31.0791 10.7254 30.1525 11.3262 29.2601 11.975C24.4943 30.3893 25.6679 47.6444 32.1584 56.4194C29.852 57.1921 30.9644 59.9172 32.8829 59.1851C33.1026 59.6176 33.47 59.9577 33.9191 60.1441C34.3682 60.3305 34.8693 60.351 35.3322 60.2019C35.6398 60.0888 35.9137 59.8999 36.1282 59.6528" fill="#E67B07"/>
<path fill-rule="evenodd" clip-rule="evenodd" d="M31.4545 25.7627C29.1482 26.8303 28.0869 28.9046 28.0971 29.7384C28.1073 30.5722 28.1991 32.8701 31.6382 32.7888C32.6587 32.5142 34.1079 32.4126 35.2406 29.23C35.0876 30.8162 35.5162 33.1142 38.1287 33.4294C38.6939 33.5818 39.2867 33.6034 39.8616 33.4923C40.4365 33.3813 40.9782 33.1406 41.4454 32.7888C41.9089 32.3356 42.2314 31.7588 42.3744 31.1277C42.5174 30.4965 42.4748 29.8376 42.2516 29.23C41.7515 27.2879 39.19 26.444 39.19 26.444L31.4545 25.7627Z" fill="#FCCA7E"/>
<path fill-rule="evenodd" clip-rule="evenodd" d="M39.3954 29.5555C39.3974 29.6117 39.3826 29.6673 39.3529 29.7152C39.3231 29.7631 39.2799 29.8011 39.2285 29.8245C39.1771 29.8478 39.1199 29.8555 39.0641 29.8465C39.0083 29.8375 38.9565 29.8122 38.9151 29.7738C38.8738 29.7355 38.8448 29.6858 38.8318 29.631C38.8188 29.5762 38.8224 29.5188 38.8421 29.4661C38.8618 29.4133 38.8968 29.3676 38.9426 29.3346C38.9884 29.3017 39.043 29.283 39.0995 29.2809C39.137 29.2796 39.1744 29.2856 39.2096 29.2987C39.2448 29.3117 39.2771 29.3316 39.3045 29.3571C39.332 29.3826 39.3542 29.4132 39.3698 29.4473C39.3854 29.4813 39.3941 29.5181 39.3954 29.5555Z" fill="#C3793A"/>
<path fill-rule="evenodd" clip-rule="evenodd" d="M40.9671 28.4272C40.9685 28.4646 40.9624 28.5019 40.9493 28.5369C40.9362 28.572 40.9163 28.6042 40.8907 28.6315C40.8651 28.6589 40.8343 28.681 40.8002 28.6965C40.766 28.7121 40.7291 28.7208 40.6916 28.7221C40.6351 28.724 40.5793 28.7093 40.5313 28.6797C40.4832 28.6501 40.4451 28.6069 40.4216 28.5557C40.3981 28.5045 40.3905 28.4475 40.3995 28.3919C40.4085 28.3364 40.4339 28.2847 40.4724 28.2435C40.5109 28.2023 40.5608 28.1734 40.6158 28.1605C40.6708 28.1475 40.7284 28.1511 40.7813 28.1708C40.8343 28.1904 40.8802 28.2253 40.9132 28.2709C40.9463 28.3165 40.9651 28.3709 40.9671 28.4272Z" fill="#C3793A"/>
<path fill-rule="evenodd" clip-rule="evenodd" d="M40.5595 30.074C40.5615 30.1303 40.5467 30.1859 40.517 30.2338C40.4873 30.2816 40.444 30.3197 40.3926 30.343C40.3412 30.3664 40.284 30.3741 40.2282 30.3651C40.1724 30.356 40.1206 30.3308 40.0793 30.2924C40.0379 30.254 40.0089 30.2043 39.9959 30.1495C39.9829 30.0948 39.9865 30.0374 40.0062 29.9846C40.0259 29.9319 40.0609 29.8861 40.1067 29.8532C40.1525 29.8202 40.2071 29.8015 40.2636 29.7995C40.3011 29.7981 40.3385 29.8042 40.3737 29.8172C40.4089 29.8303 40.4412 29.8501 40.4687 29.8756C40.4962 29.9011 40.5183 29.9318 40.5339 29.9658C40.5495 29.9999 40.5582 30.0366 40.5595 30.074Z" fill="#C3793A"/>
<path fill-rule="evenodd" clip-rule="evenodd" d="M40.8229 31.6605C40.8249 31.7167 40.8101 31.7723 40.7804 31.8202C40.7506 31.8681 40.7074 31.9061 40.656 31.9295C40.6045 31.9528 40.5473 31.9605 40.4916 31.9515C40.4358 31.9425 40.384 31.9172 40.3426 31.8788C40.3013 31.8405 40.2723 31.7907 40.2593 31.736C40.2463 31.6812 40.2498 31.6238 40.2696 31.571C40.2893 31.5183 40.3243 31.4725 40.3701 31.4396C40.4159 31.4067 40.4705 31.388 40.527 31.3859C40.5645 31.3846 40.6019 31.3906 40.6371 31.4037C40.6723 31.4167 40.7046 31.4366 40.732 31.4621C40.7595 31.4876 40.7817 31.5182 40.7973 31.5523C40.8129 31.5863 40.8216 31.6231 40.8229 31.6605Z" fill="#C3793A"/>
<path fill-rule="evenodd" clip-rule="evenodd" d="M39.1495 31.02C39.1509 31.0574 39.1449 31.0947 39.1317 31.1297C39.1186 31.1648 39.0987 31.1969 39.0731 31.2243C39.0475 31.2517 39.0168 31.2738 38.9826 31.2893C38.9484 31.3049 38.9115 31.3135 38.874 31.3148C38.8175 31.3168 38.7618 31.3021 38.7137 31.2725C38.6656 31.2428 38.6275 31.1997 38.604 31.1485C38.5806 31.0973 38.5729 31.0403 38.5819 30.9847C38.591 30.9292 38.6164 30.8775 38.6549 30.8363C38.6934 30.7951 38.7433 30.7662 38.7982 30.7532C38.8532 30.7403 38.9108 30.7439 38.9638 30.7635C39.0167 30.7832 39.0626 30.818 39.0957 30.8637C39.1287 30.9093 39.1475 30.9637 39.1495 31.02Z" fill="#C3793A"/>
<path fill-rule="evenodd" clip-rule="evenodd" d="M41.7327 30.3587C41.7341 30.3961 41.728 30.4334 41.7149 30.4685C41.7018 30.5035 41.6819 30.5357 41.6563 30.5631C41.6307 30.5904 41.6 30.6125 41.5658 30.6281C41.5316 30.6436 41.4947 30.6523 41.4572 30.6536C41.3814 30.6536 41.3087 30.6236 41.2551 30.5702C41.2016 30.5168 41.1714 30.4444 41.1714 30.3689C41.1714 30.2934 41.2016 30.221 41.2551 30.1676C41.3087 30.1142 41.3814 30.0842 41.4572 30.0842C41.4947 30.0828 41.5322 30.0888 41.5673 30.1019C41.6025 30.115 41.6348 30.1348 41.6623 30.1603C41.6898 30.1858 41.7119 30.2165 41.7275 30.2505C41.7431 30.2845 41.7518 30.3213 41.7531 30.3587" fill="#C3793A"/>
<path fill-rule="evenodd" clip-rule="evenodd" d="M30.6987 28.5387C30.6452 28.5555 30.5879 28.5562 30.5339 28.5408C30.48 28.5253 30.4318 28.4944 30.3954 28.4519C30.359 28.4093 30.336 28.3571 30.3292 28.3016C30.3224 28.2461 30.3322 28.1898 30.3573 28.1398C30.3823 28.0898 30.4217 28.0483 30.4703 28.0204C30.5189 27.9925 30.5747 27.9795 30.6307 27.983C30.6867 27.9865 30.7405 28.0063 30.7852 28.0401C30.83 28.0738 30.8637 28.1199 30.8824 28.1726C30.8951 28.2086 30.9004 28.2468 30.898 28.285C30.8956 28.3231 30.8855 28.3603 30.8684 28.3944C30.8513 28.4286 30.8274 28.459 30.7983 28.4837C30.7691 28.5085 30.7352 28.5272 30.6987 28.5387Z" fill="#C3793A"/>
<path fill-rule="evenodd" clip-rule="evenodd" d="M30.7732 30.003C30.7197 30.0198 30.6624 30.0206 30.6085 30.0051C30.5545 29.9897 30.5064 29.9588 30.4699 29.9162C30.4335 29.8737 30.4105 29.8214 30.4037 29.7659C30.3969 29.7104 30.4067 29.6542 30.4318 29.6042C30.4569 29.5542 30.4962 29.5126 30.5448 29.4847C30.5934 29.4568 30.6492 29.4438 30.7052 29.4473C30.7612 29.4508 30.815 29.4707 30.8597 29.5044C30.9045 29.5381 30.9383 29.5842 30.9569 29.637C30.9696 29.673 30.9749 29.7112 30.9725 29.7493C30.9701 29.7874 30.9601 29.8247 30.9429 29.8588C30.9258 29.893 30.9019 29.9233 30.8728 29.9481C30.8436 29.9729 30.8098 29.9916 30.7732 30.003Z" fill="#C3793A"/>
<path fill-rule="evenodd" clip-rule="evenodd" d="M31.4438 31.1621C31.3906 31.1808 31.3331 31.1834 31.2784 31.1695C31.2238 31.1557 31.1744 31.126 31.1367 31.0843C31.0989 31.0426 31.0743 30.9907 31.0661 30.9352C31.0579 30.8796 31.0663 30.8228 31.0904 30.772C31.1145 30.7212 31.1531 30.6787 31.2014 30.6497C31.2497 30.6207 31.3055 30.6066 31.3619 30.6092C31.4182 30.6118 31.4725 30.6309 31.5179 30.6641C31.5634 30.6974 31.5979 30.7433 31.6172 30.7961C31.6302 30.8314 31.636 30.869 31.6342 30.9066C31.6325 30.9442 31.6233 30.9811 31.6072 31.0152C31.591 31.0492 31.5683 31.0797 31.5402 31.1049C31.5122 31.1302 31.4794 31.1496 31.4438 31.1621Z" fill="#C3793A"/>
<path fill-rule="evenodd" clip-rule="evenodd" d="M32.1499 29.8302C32.0964 29.847 32.0391 29.8477 31.9852 29.8323C31.9312 29.8168 31.8831 29.7859 31.8467 29.7434C31.8102 29.7008 31.7872 29.6486 31.7804 29.5931C31.7736 29.5376 31.7834 29.4813 31.8085 29.4313C31.8336 29.3813 31.8729 29.3398 31.9215 29.3119C31.9702 29.284 32.026 29.271 32.082 29.2745C32.138 29.278 32.1917 29.2978 32.2364 29.3316C32.2812 29.3653 32.315 29.4114 32.3336 29.4641C32.3463 29.5001 32.3516 29.5383 32.3492 29.5765C32.3468 29.6146 32.3368 29.6518 32.3196 29.6859C32.3025 29.7201 32.2786 29.7505 32.2495 29.7752C32.2203 29.8 32.1865 29.8187 32.1499 29.8302Z" fill="#C3793A"/>
<path fill-rule="evenodd" clip-rule="evenodd" d="M29.5075 29.8302C29.454 29.847 29.3967 29.8477 29.3428 29.8323C29.2888 29.8168 29.2407 29.7859 29.2043 29.7434C29.1678 29.7008 29.1448 29.6486 29.138 29.5931C29.1312 29.5376 29.141 29.4813 29.1661 29.4313C29.1912 29.3813 29.2305 29.3398 29.2791 29.3119C29.3278 29.284 29.3836 29.271 29.4396 29.2745C29.4956 29.278 29.5493 29.2978 29.594 29.3316C29.6388 29.3653 29.6726 29.4114 29.6912 29.4641C29.7039 29.5001 29.7092 29.5383 29.7068 29.5765C29.7045 29.6146 29.6944 29.6518 29.6772 29.6859C29.6601 29.7201 29.6362 29.7505 29.6071 29.7752C29.5779 29.8 29.5441 29.8187 29.5075 29.8302Z" fill="#C3793A"/>
<path fill-rule="evenodd" clip-rule="evenodd" d="M29.8333 31.1521C29.7562 31.1831 29.6699 31.1823 29.5933 31.1499C29.5167 31.1174 29.4563 31.0561 29.4251 30.9792C29.394 30.9023 29.3948 30.8163 29.4273 30.74C29.4599 30.6638 29.5215 30.6035 29.5986 30.5725C29.6696 30.5509 29.7463 30.5576 29.8124 30.5914C29.8785 30.6251 29.9288 30.6832 29.9527 30.7532C29.9765 30.8233 29.9721 30.8998 29.9403 30.9667C29.9085 31.0335 29.8518 31.0854 29.7823 31.1114" fill="#C3793A"/>
<path fill-rule="evenodd" clip-rule="evenodd" d="M40.9647 25.7831C40.9647 25.7831 37.8317 30.5112 35.107 29.9723C32.3822 29.4334 30.9535 24.2681 30.9535 24.2681C34.6988 26.4339 40.9647 25.7729 40.9647 25.7729" fill="#111314"/>
<path fill-rule="evenodd" clip-rule="evenodd" d="M33.7928 25.7627C35.1599 26.0719 36.5549 26.2422 37.9565 26.2711C36.5555 26.654 35.0595 26.4714 33.7928 25.7627Z" fill="white"/>
<path fill-rule="evenodd" clip-rule="evenodd" d="M40.6794 43.1807L40.2508 42.4689C38.7812 40.0896 32.3112 39.3473 31.6376 42.3469C31.5176 43.8217 31.5965 45.3059 31.8724 46.7598C32.4041 47.0089 32.9532 47.2196 33.5154 47.3902C33.8113 47.4817 34.1175 47.5631 34.4134 47.6342C33.6276 44.0551 37.0872 43.079 40.6896 43.1807" fill="#AA3D19"/>
<path fill-rule="evenodd" clip-rule="evenodd" d="M54.7434 37.5783C56.0269 36.4796 57.0188 35.0827 57.6315 33.5111L56.7641 34.1415C57.4764 32.0114 57.6894 29.747 57.3866 27.5222C57.2318 28.1095 57.041 28.6868 56.8151 29.2507C56.5982 28.4042 56.2541 27.5952 55.7946 26.8511C56.6722 33.3586 52.8249 38.6154 46.4773 38.8798L46.5896 39.3577L46.6916 39.8051C47.4847 40.0273 48.3073 40.1267 49.1306 40.1C51.2543 39.9445 53.2539 39.0438 54.7741 37.558" fill="#AA3D19"/>
<path fill-rule="evenodd" clip-rule="evenodd" d="M16.852 31.5079C16.852 31.0876 16.852 30.6775 16.852 30.2776C16.852 29.8912 16.852 29.515 16.852 29.1489C16.852 28.2948 16.7193 27.5017 16.6173 26.7595C16.5356 26.2104 16.4404 25.6884 16.3315 25.1936C16.0889 24.1831 15.7471 23.1988 15.311 22.255C15.0859 21.7398 14.8197 21.2434 14.515 20.7705C12.9741 18.4217 10.9943 17.9438 9.6676 18.9504C8.34094 19.9571 8.64709 21.3094 9.4533 22.8753C9.6676 23.282 9.92273 23.7091 10.1983 24.1361C10.6269 24.8275 11.1065 25.5495 11.5658 26.2816C11.7767 26.6205 11.9774 26.9594 12.1679 27.2984C12.5219 27.9192 12.8223 28.5689 13.0659 29.2404C13.3116 29.909 13.446 30.6131 13.4639 31.3249L16.852 31.5079Z" fill="#4E9CC7"/>
<path fill-rule="evenodd" clip-rule="evenodd" d="M16.8423 30.1045C15.7765 29.6868 14.5915 29.6868 13.5257 30.1045C13.459 29.8191 13.3772 29.5374 13.2808 29.2605V29.169C14.3931 28.3149 16.3423 28.8233 16.8219 28.9962C16.8219 28.9962 16.8219 29.7384 16.8219 30.1045" fill="#A2D6F3"/>
<path fill-rule="evenodd" clip-rule="evenodd" d="M16.5569 26.6983C16.5569 26.6983 14.077 25.6815 12.4136 27.349C12.2299 27.0033 12.036 26.6678 11.8421 26.3322C13.4443 24.2986 16.2813 25.1629 16.2813 25.1629C16.3936 25.651 16.4752 26.1797 16.5671 26.6983" fill="#A2D6F3"/>
<path fill-rule="evenodd" clip-rule="evenodd" d="M15.3091 22.2141H15.1152C15.1152 22.2141 11.9924 22.0006 10.5127 24.2477C10.2576 23.8207 10.0126 23.4038 9.80853 22.997C11.2475 20.7397 14.4927 20.7397 14.4927 20.7397C14.8006 21.2107 15.0734 21.7035 15.3091 22.2141Z" fill="#A2D6F3"/>
<path fill-rule="evenodd" clip-rule="evenodd" d="M13.9541 26.7897C12.7703 23.7393 9.87202 19.9975 11.4436 18.5435C10.8999 18.4391 10.3367 18.5484 9.87202 18.8485C8.10653 19.9874 8.71884 21.4312 9.55566 23.0174C9.76996 23.4241 10.0455 23.8512 10.321 24.2986C10.7599 24.99 11.2293 25.7119 11.6885 26.4542C11.9028 26.7999 12.0457 27.0541 12.2396 27.41C12.5804 28.0071 12.8673 28.6332 13.0968 29.2809C13.3442 29.9561 13.4786 30.6671 13.4948 31.3857L15.2705 31.4467C14.9698 29.8655 14.5293 28.3139 13.9541 26.8101" fill="#006FA1"/>
<path fill-rule="evenodd" clip-rule="evenodd" d="M14.6078 28.6914C14.1179 28.7135 13.6455 28.8798 13.2505 29.1693V29.2608C13.3471 29.5376 13.4289 29.8193 13.4954 30.1048C13.9281 29.8963 14.4027 29.7886 14.8833 29.7896C14.7915 29.4337 14.6894 29.0676 14.5874 28.6914" fill="#4E9CC7"/>
<path fill-rule="evenodd" clip-rule="evenodd" d="M13.2693 25.2544C12.7135 25.485 12.228 25.8566 11.861 26.3322C12.0549 26.6576 12.2488 26.983 12.4325 27.349C12.8169 26.9513 13.2988 26.6604 13.8306 26.5051C13.6571 26.0983 13.453 25.6815 13.2387 25.2544" fill="#4E9CC7"/>
<path fill-rule="evenodd" clip-rule="evenodd" d="M11.4134 21.5024C10.7755 21.8526 10.2353 22.3559 9.84186 22.9666C10.046 23.3734 10.2909 23.7801 10.546 24.2173C10.924 23.657 11.436 23.1992 12.036 22.8853C11.8012 22.4074 11.5869 21.9498 11.4134 21.5024Z" fill="#4E9CC7"/>
<path fill-rule="evenodd" clip-rule="evenodd" d="M22.0051 56.4705C25.861 46.9014 27.1177 36.4888 25.6483 26.2817C25.0249 28.1133 24.1045 29.8308 22.9236 31.3657C22.1378 31.3657 19.862 31.4166 16.8005 31.3657C14.4635 31.3047 11.6979 31.1827 8.73845 30.9183C7.68698 29.8373 6.5727 28.8188 5.40138 27.8679C6.78928 31.3352 8.20779 46.9634 2.33984 55.7079C2.12952 55.5294 1.87145 55.416 1.59732 55.3816C1.3232 55.3471 1.04495 55.3932 0.796753 55.5142C0.548554 55.6351 0.341208 55.8257 0.200178 56.0624C0.0591473 56.2991 -0.00942849 56.5717 0.00287157 56.8467C0.00906818 57.1512 0.123075 57.4437 0.324751 57.6726C0.526427 57.9014 0.802793 58.0519 1.10502 58.0974C1.15297 58.3666 1.29818 58.6089 1.51323 58.7787C1.79007 58.9434 2.10328 59.0379 2.42534 59.0539C2.74741 59.0698 3.06848 59.0067 3.36036 58.8702C3.51201 59.1064 3.74449 59.2799 4.0147 59.3584C4.28492 59.437 4.57454 59.4152 4.82989 59.2972C5.03512 59.2181 5.21776 59.09 5.36184 58.9243C5.50591 58.7585 5.60704 58.5602 5.65638 58.3465C5.70572 58.1328 5.70176 57.9103 5.64485 57.6985C5.58795 57.4867 5.47983 57.292 5.32994 57.1314C5.97355 56.2758 6.54366 55.3676 7.0342 54.4166C7.33015 53.8574 7.58528 53.3083 7.8302 52.7897C8.75887 50.7561 9.53445 49.0987 11.7592 47.5939C15.5963 45.0112 20.1886 46.5771 20.0763 50.2172C20.0516 50.9624 19.9868 51.7057 19.8824 52.444C19.7624 53.1984 19.5989 53.9453 19.3926 54.681C19.2561 55.2277 19.0822 55.7645 18.8721 56.2875C18.6531 56.2455 18.427 56.2596 18.215 56.3286C18.0029 56.3975 17.8119 56.519 17.6599 56.6816C17.5079 56.8443 17.3999 57.0427 17.346 57.2583C17.292 57.474 17.294 57.6997 17.3516 57.9144C17.4043 58.0915 17.4957 58.2548 17.6192 58.3925C17.7428 58.5302 17.8954 58.6389 18.0662 58.7108C18.2369 58.7828 18.4215 58.8161 18.6068 58.8085C18.792 58.8009 18.9732 58.7525 19.1375 58.6668C19.2977 58.8725 19.5062 59.0358 19.7447 59.1422C19.9832 59.2486 20.2443 59.2948 20.505 59.2769C20.7129 59.2687 20.9166 59.2153 21.1017 59.1204C21.2868 59.0256 21.4488 58.8916 21.5765 58.7278C21.756 58.8232 21.9569 58.8712 22.1602 58.8675C22.3635 58.8638 22.5626 58.8084 22.7384 58.7065C22.9142 58.6047 23.061 58.4598 23.1648 58.2856C23.2687 58.1113 23.3261 57.9136 23.3318 57.711C23.3318 57.2026 23.0767 56.2672 21.9745 56.5112L22.0051 56.4705ZM13.096 41.3914C12.2429 41.4191 11.4007 41.1941 10.6759 40.745C9.95105 40.2958 9.37612 39.6426 9.02378 38.868C8.67143 38.0934 8.55749 37.2321 8.69635 36.3929C8.8352 35.5538 9.22062 34.7745 9.8039 34.1536C10.3872 33.5326 11.1421 33.0979 11.9733 32.9044C12.8045 32.7108 13.6746 32.7672 14.4736 33.0662C15.2727 33.3653 15.9648 33.8937 16.4625 34.5846C16.9603 35.2755 17.2412 36.098 17.2699 36.948C17.289 37.5129 17.1962 38.076 16.9967 38.6051C16.7972 39.1342 16.495 39.619 16.1073 40.0316C15.7197 40.4443 15.2542 40.7768 14.7375 41.0101C14.2208 41.2434 13.663 41.373 13.096 41.3914ZM17.2597 42.4082C17.3164 42.6225 17.4162 42.8232 17.553 42.998C17.6898 43.1727 17.8609 43.318 18.0557 43.425C17.423 45.4586 16.1678 44.9502 16.3719 43.2826C16.5782 43.2193 16.7664 43.1079 16.9208 42.9575C17.0752 42.8072 17.1914 42.6224 17.2597 42.4184C16.3311 41.8693 15.1575 40.6491 17.3516 40.7406C18.7191 40.8525 18.8109 41.2389 17.2597 42.3675V42.4082ZM20.8417 41.1779H20.5152H20.3417C20.1437 41.1824 19.9487 41.1294 19.7804 41.0253C18.9466 40.7869 18.234 40.2434 17.7854 39.5036C17.3369 38.7639 17.1854 37.8825 17.3615 37.0362C17.5375 36.1899 18.028 35.4412 18.7347 34.94C19.4415 34.4388 20.3122 34.2222 21.1724 34.3336C22.0326 34.4451 22.8188 34.8762 23.3734 35.5408C23.928 36.2054 24.2101 37.0542 24.1631 37.9172C24.1161 38.7803 23.7435 39.5937 23.12 40.1946C22.4965 40.7955 21.6682 41.1395 20.8009 41.1575L20.8417 41.1779Z" fill="#4E9CC7"/>
<path fill-rule="evenodd" clip-rule="evenodd" d="M18.0544 43.3738C17.4217 45.4074 16.1665 44.899 16.3706 43.2315C16.5769 43.1681 16.765 43.0567 16.9195 42.9064C17.0739 42.7561 17.1901 42.5712 17.2584 42.3672C17.3151 42.5815 17.4149 42.7822 17.5517 42.957C17.6885 43.1318 17.8596 43.277 18.0544 43.384" fill="#CE3B43"/>
<path fill-rule="evenodd" clip-rule="evenodd" d="M20.0664 50.2171C20.0416 50.9623 19.9769 51.7056 19.8725 52.4439C19.4133 52.5761 18.9438 52.688 18.4642 52.7693C15.2372 53.2916 11.9517 53.3498 8.70811 52.9422L7.81006 52.8202C8.73872 50.7866 9.51431 49.1292 11.739 47.6243C15.5762 45.0416 20.1685 46.6075 20.0562 50.2476" fill="#A2D6F3"/>
<path fill-rule="evenodd" clip-rule="evenodd" d="M16.4953 34.9141C16.4986 34.9513 16.4986 34.9887 16.4953 35.026C16.501 35.1434 16.4736 35.2601 16.4162 35.3629C16.3589 35.4656 16.2738 35.5504 16.1706 35.6075C16.0674 35.6646 15.9503 35.6918 15.8324 35.6861C15.7145 35.6803 15.6006 35.6418 15.5035 35.5749C15.4064 35.5081 15.3301 35.4155 15.283 35.3076C15.236 35.1998 15.2202 35.081 15.2373 34.9646C15.2545 34.8483 15.304 34.739 15.3803 34.6492C15.4565 34.5595 15.5564 34.4927 15.6687 34.4565H15.3931C15.0778 34.4638 14.7744 34.5778 14.5328 34.7799C14.2912 34.982 14.1259 35.26 14.0641 35.5682C14.0023 35.8763 14.0478 36.1963 14.1929 36.4753C14.338 36.7543 14.5742 36.9758 14.8626 37.1032C15.1509 37.2306 15.4742 37.2563 15.7792 37.1761C16.0842 37.0959 16.3526 36.9147 16.5404 36.6621C16.7281 36.4096 16.8239 36.1009 16.812 35.7868C16.8001 35.4728 16.6812 35.1721 16.4749 34.9344" fill="#2C3243"/>
<path fill-rule="evenodd" clip-rule="evenodd" d="M23.9432 36.8055C23.948 37.0434 23.869 37.2754 23.7198 37.4612C23.5706 37.647 23.3608 37.7748 23.1268 37.8223H22.9533C22.7553 37.8268 22.5603 37.7739 22.392 37.6698C22.2441 37.5825 22.1206 37.4594 22.0332 37.3118C21.9458 37.1643 21.8972 36.9971 21.892 36.8259C21.892 36.5562 21.9995 36.2976 22.1909 36.1069C22.3823 35.9162 22.6418 35.8091 22.9125 35.8091H23.1166C23.0333 35.8357 22.9591 35.8849 22.9025 35.9512C22.8458 36.0175 22.8088 36.0983 22.7957 36.1845C22.7826 36.2706 22.7939 36.3587 22.8283 36.4387C22.8628 36.5188 22.919 36.5877 22.9906 36.6377C23.0622 36.6876 23.1465 36.7167 23.2338 36.7215C23.3211 36.7263 23.408 36.7068 23.4847 36.665C23.5615 36.6233 23.625 36.561 23.6681 36.4853C23.7113 36.4095 23.7323 36.3232 23.7289 36.2361C23.733 36.2058 23.733 36.175 23.7289 36.1446C23.884 36.3194 23.9741 36.542 23.984 36.775" fill="#2C3243"/>
<path fill-rule="evenodd" clip-rule="evenodd" d="M7.70706 54.1928C7.62976 54.2956 7.52323 54.3729 7.4013 54.4146C7.27937 54.4563 7.14768 54.4605 7.02332 54.4267C7.31926 53.8674 7.57439 53.3184 7.81931 52.7998L8.71737 52.9218L8.52347 53.6031C9.12557 54.0911 8.25814 54.9758 7.71726 54.1928" fill="#006FA1"/>
<path fill-rule="evenodd" clip-rule="evenodd" d="M19.8718 52.4438C19.7551 53.1981 19.595 53.9449 19.3921 54.6808C19.3038 54.6728 19.219 54.6425 19.1458 54.5926C19.0726 54.5428 19.0134 54.4752 18.9737 54.3961C18.9534 54.4635 18.917 54.5251 18.8677 54.5755C18.8183 54.6259 18.7575 54.6636 18.6904 54.6856C18.6233 54.7076 18.5518 54.7131 18.4821 54.7016C18.4124 54.6901 18.3465 54.6621 18.29 54.6198C17.9838 54.4368 17.9226 53.9691 18.4533 53.8064C18.5166 53.4704 18.5166 53.1256 18.4533 52.7896C18.9329 52.698 19.4023 52.5862 19.8616 52.4642" fill="#006FA1"/>
<path fill-rule="evenodd" clip-rule="evenodd" d="M9.09689 45.4175L6.1272 46.0988C6.20884 45.6446 6.28368 45.187 6.35171 44.7261L9.09689 45.4175Z" fill="#A2D6F3"/>
<path fill-rule="evenodd" clip-rule="evenodd" d="M7.49187 48.4577L5.62433 48.5187C5.71277 48.1595 5.79782 47.8002 5.87946 47.4409L7.49187 48.4577Z" fill="#A2D6F3"/>
<path fill-rule="evenodd" clip-rule="evenodd" d="M6.2985 51.071H4.83917C4.95143 50.7456 5.06369 50.4202 5.16574 50.0542L6.2985 51.071Z" fill="#A2D6F3"/>
<path fill-rule="evenodd" clip-rule="evenodd" d="M25.6476 26.2817C25.0242 28.1133 24.1038 29.8308 22.9229 31.3657H22.2289C22.6144 32.6592 22.9279 33.9728 23.1678 35.3008C23.7082 35.8386 24.0529 36.5408 24.1471 37.2961C24.2414 38.0513 24.0799 38.8163 23.6883 39.4696C24.1737 46.2583 22.8129 53.0517 19.7491 59.1345C19.9993 59.2452 20.2716 59.2973 20.5451 59.2871C20.7531 59.2788 20.9567 59.2254 21.1418 59.1306C21.3269 59.0358 21.4889 58.9018 21.6166 58.738C21.7961 58.8333 21.997 58.8814 22.2003 58.8777C22.4037 58.874 22.6027 58.8185 22.7785 58.7167C22.9543 58.6148 23.1011 58.4699 23.2049 58.2957C23.3088 58.1215 23.3663 57.9238 23.3719 57.7212C23.3719 57.2128 23.1168 56.2773 22.0146 56.5214C25.8706 46.9523 27.1272 36.5397 25.6579 26.3326" fill="#006FA1"/>
<path fill-rule="evenodd" clip-rule="evenodd" d="M24.9036 46.2515C24.8118 46.7294 24.7097 47.1971 24.6077 47.6648L21.5461 46.7294L24.9036 46.2515Z" fill="#A2D6F3"/>
<path fill-rule="evenodd" clip-rule="evenodd" d="M24.2807 49.0174C24.199 49.3631 24.1072 49.6986 24.0153 50.0342L21.9743 48.875L24.2807 49.0174Z" fill="#A2D6F3"/>
<path fill-rule="evenodd" clip-rule="evenodd" d="M23.5567 51.6609C23.4615 51.9795 23.3628 52.2947 23.2608 52.6065L21.8729 51.5186L23.5567 51.6609Z" fill="#A2D6F3"/>
<path fill-rule="evenodd" clip-rule="evenodd" d="M24.6055 47.6648C24.7075 47.1971 24.8096 46.7294 24.9014 46.2515L23.5238 46.4447C23.5238 46.7395 23.4523 47.0242 23.4115 47.3089L24.6055 47.6648Z" fill="#4E9CC7"/>
<path fill-rule="evenodd" clip-rule="evenodd" d="M24.0265 50.044C24.1184 49.7085 24.2102 49.3628 24.2919 49.0272L23.1693 48.9561L23.0673 49.495L24.0265 50.044Z" fill="#4E9CC7"/>
<path fill-rule="evenodd" clip-rule="evenodd" d="M23.2583 52.6066C23.3604 52.2947 23.459 51.9795 23.5543 51.6609L22.5848 51.5796L22.4725 51.9965L23.2583 52.6066Z" fill="#4E9CC7"/>
<path fill-rule="evenodd" clip-rule="evenodd" d="M19.9035 52.4436C20.0079 51.7053 20.0726 50.962 20.0974 50.2168C20.2097 46.8512 16.3521 45.0311 12.6273 47.0851C18.4136 46.2004 18.8524 52.1691 15.4031 53.1859C16.4307 53.1266 17.4533 53.0009 18.4646 52.8096C18.9442 52.7181 19.4137 52.6063 19.8627 52.4843" fill="#006FA1"/>
<path fill-rule="evenodd" clip-rule="evenodd" d="M17.1986 40.7406C16.9472 40.8024 16.6832 40.7902 16.4386 40.7054C16.194 40.6205 15.9794 40.4667 15.8209 40.2627C15.2968 40.7618 14.6486 41.1127 13.9432 41.2795C13.9086 41.5153 13.9225 41.7556 13.9841 41.9859C14.0456 42.2162 14.1534 42.4317 14.301 42.6192C14.4486 42.8067 14.6329 42.9624 14.8427 43.0768C15.0525 43.1911 15.2835 43.2619 15.5216 43.2846C15.7597 43.3074 15.9999 43.2817 16.2277 43.2091C16.4555 43.1366 16.6662 43.0187 16.8469 42.8625C17.0276 42.7064 17.1745 42.5153 17.2789 42.3009C17.3832 42.0864 17.4427 41.8531 17.4538 41.615C17.4734 41.3123 17.3828 41.0127 17.1986 40.7711" fill="#A2D6F3"/>
<path fill-rule="evenodd" clip-rule="evenodd" d="M17.3505 41.0047C17.6019 41.0666 17.8659 41.0544 18.1105 40.9695C18.3551 40.8847 18.5697 40.7309 18.7282 40.5269C19.3212 40.8807 19.9883 41.0929 20.6774 41.1471C20.6774 41.259 20.6774 41.7368 20.6774 41.8487C20.6774 42.3166 20.4908 42.7653 20.1588 43.0961C19.8267 43.427 19.3764 43.6128 18.9068 43.6128C18.4372 43.6128 17.9868 43.427 17.6548 43.0961C17.3227 42.7653 17.1362 42.3166 17.1362 41.8487C17.1166 41.546 17.2071 41.2463 17.3913 41.0047" fill="#A2D6F3"/>
<path fill-rule="evenodd" clip-rule="evenodd" d="M17.2607 42.3671C16.3321 41.8689 15.1585 40.6487 17.3526 40.7402C18.6792 40.8114 18.7711 41.1978 17.2199 42.3264" fill="#111314"/>
<path fill-rule="evenodd" clip-rule="evenodd" d="M17.82 41.0253C17.82 41.0762 17.5853 41.1168 17.2996 41.1067C17.0138 41.0965 16.7893 41.0457 16.7893 40.9846C16.7893 40.9236 17.024 40.8931 17.3098 40.9033C17.5955 40.9135 17.82 40.9643 17.82 41.0253Z" fill="white"/>
<path d="M8.81897 42.9673C10.9418 42.1798 13.1871 41.7703 15.4523 41.7573C13.5809 42.1038 11.8164 42.8802 10.2987 44.0248" stroke="#F5F5F5" stroke-width="0.273239" stroke-miterlimit="10"/>
<path d="M24.4926 43.8921C22.8439 42.8298 20.9726 42.1585 19.0226 41.9297C20.5575 42.3029 21.9507 43.1117 23.0333 44.2582" stroke="#F5F5F5" stroke-width="0.273239" stroke-miterlimit="10"/>
<path fill-rule="evenodd" clip-rule="evenodd" d="M47.313 12.7682L44.9046 12.0056C44.7325 11.9525 44.5501 11.9419 44.373 11.9746C44.1958 12.0074 44.0293 12.0825 43.8878 12.1935C43.7463 12.3045 43.6339 12.4482 43.5604 12.612C43.4868 12.7759 43.4544 12.9551 43.4657 13.1342C43.4657 13.6019 43.5065 14.0697 43.5882 14.5374C43.787 16.7613 44.2284 18.957 44.9046 21.0856C45.6385 23.4094 46.8206 25.5681 48.3846 27.4406C47.3641 23.6683 46.0272 17.2726 47.3641 12.7682" fill="#AA3D19"/>
<path fill-rule="evenodd" clip-rule="evenodd" d="M28.5764 0.617431C28.4743 0.241215 28.2906 0.0683594 28.0865 0.0683594C26.5966 0.0683594 23.4738 8.63998 24.4943 16.0626C25.5905 14.9834 26.7455 13.9651 27.9539 13.0122C27.2803 8.49763 27.0048 3.26111 28.7601 1.02415C28.7091 0.902135 28.658 0.769951 28.6172 0.658103" fill="#AA3D19"/>
<path fill-rule="evenodd" clip-rule="evenodd" d="M34.3845 32.1689C34.9514 34.2041 36.2242 35.9731 37.9767 37.1614C36.6095 35.8251 35.6083 34.1624 35.0682 32.3316L34.3845 32.1689Z" fill="#A31C25"/>
<path fill-rule="evenodd" clip-rule="evenodd" d="M43.5485 14.5377C42.9668 14.436 42.4565 14.3241 41.9463 14.2021L41.7014 14.1411C42.4347 16.5953 43.5135 18.9335 44.9058 21.0859C44.2198 18.9617 43.7681 16.7694 43.5587 14.5478" fill="#E67B07"/>
<path fill-rule="evenodd" clip-rule="evenodd" d="M134 55.8312L130.418 56.0345L129.704 51.3877L126.234 51.4894L125.213 56.1362L121.04 56.0345L125.509 35.485L130.847 35.6884L134 55.8312ZM129.255 47.0867L128.091 39.4912L126.703 47.29L129.255 47.0867ZM120.162 51.6013V59.1154H116.978V56.065H108.814V59.1154H105.63V51.6013H107.671C108.15 47.2619 108.405 42.9009 108.436 38.5354C108.436 37.1627 108.436 36.0849 108.518 35.485L118.376 35.6172L118.692 51.6013H120.162ZM110.977 51.6013H113.845L113.59 40.0606H111.692C111.559 44.2905 111.385 48.4492 110.957 51.6013H110.977ZM93.4959 36.9187C97.5779 36.9187 104.517 36.9187 104.966 42.6229C105.045 43.4051 104.931 44.1946 104.634 44.9229C104.337 45.6511 103.866 46.2962 103.262 46.802C101.839 47.9021 100.12 48.5568 98.3229 48.6831V56.1159H93.4959V36.9187ZM101.874 42.8365C101.731 41.1587 100.568 40.386 98.3229 40.0199V45.836C99.3356 45.7517 100.308 45.4008 101.14 44.8192C101.42 44.5798 101.635 44.273 101.763 43.9278C101.892 43.5827 101.93 43.2105 101.874 42.8466V42.8365ZM80.5456 46.2732C80.5456 39.9182 82.7601 36.817 87.281 36.817C87.8148 36.8119 88.3442 36.9147 88.8371 37.1191C89.33 37.3236 89.7761 37.6255 90.1486 38.0067C91.71 39.5522 92.3325 42.4501 91.9651 46.3749C91.4549 52.0283 89.4036 54.8957 85.9441 54.8957C80.5456 54.9059 80.5456 49.7202 80.5456 46.2834V46.2732ZM83.8112 45.9885C83.8112 50.0557 84.4644 50.7167 86.0257 50.7167C88.0668 50.7167 88.6995 47.6663 88.924 45.8869C89.2404 43.0195 88.6076 41.3926 87.9035 40.8029C87.7546 40.6708 87.5619 40.5983 87.3626 40.5995C86.138 40.63 83.8112 40.63 83.8112 45.9987V45.9885ZM64.8093 56.1565L64.7276 35.4952L67.9116 35.546L71.4222 45.1751L75.1471 35.668L78.3311 35.5867L79.1577 55.8312L75.892 55.9328L75.4124 43.7312L72.3509 50.4218H70.3099L68.0137 45.3378L68.0749 56.1565H64.8093ZM128.306 32.1906L128.244 25.5814L123.417 33.0142L120.356 31.4178L126.203 22.4293C121.57 21.321 120.978 18.2706 120.978 16.7962C121.012 16.0637 121.229 15.3512 121.611 14.7241C121.992 14.097 122.526 13.5754 123.162 13.2069C125.274 11.9016 127.766 11.3461 130.234 11.6309H133.02L133.194 32.1906H128.306ZM128.193 19.5314V14.8033C127.162 14.917 126.17 15.2648 125.295 15.8201C124.958 16.0539 124.56 16.4098 124.56 16.8369C124.489 17.4571 124.489 19.1145 128.183 19.5212L128.193 19.5314ZM119.529 31.9059L115.947 32.1092L115.233 27.4624L111.763 27.5641L110.743 32.2109L106.569 32.1092L111.059 11.4987L116.396 11.702L119.529 31.9059ZM114.784 23.1512L113.62 15.5659L112.243 23.3444L114.784 23.1512ZM105.691 16.5827H102.038L102.15 30.9399H98.0678L97.9555 16.5827H94.1082V12.5155H105.701L105.691 16.5827ZM80.8722 19.7551C86.9238 20.3245 87.6279 23.8223 87.6279 25.3373C87.592 26.021 87.3869 26.6852 87.0307 27.2707C86.6746 27.8561 86.1786 28.3447 85.5869 28.6928C83.9313 29.7115 82.022 30.247 80.0762 30.2383C79.6971 30.2369 79.3187 30.2098 78.9434 30.157H76.3003L76.1574 13.3188L80.7599 13.2679L80.8722 19.7551ZM83.6684 26.2931C84.0051 26.0593 84.3827 25.7237 84.3827 25.3373C84.3827 24.7171 84.3827 23.1715 80.9436 22.7852V27.1981C81.9087 27.105 82.8402 26.7956 83.6684 26.2931ZM93.0163 12.7595H88.6178V30.1671H92.9652L93.0163 12.7595ZM69.8506 14.9558C68.1158 14.9558 66.1564 18.3112 66.1564 22.0734C66.1564 25.5305 67.0952 27.2082 68.5954 27.2082C70.6364 27.2082 71.1263 26.588 71.81 24.3714C72.7967 24.7045 73.7642 25.0915 74.7083 25.5305C74.3715 29.5062 72.0651 32.5261 68.8301 32.5261C65.5951 32.5261 61.3293 29.0893 61.3293 21.7582C61.3293 14.4271 66.5238 11.2852 70.4017 11.2852C71.4201 11.3633 72.3948 11.7303 73.2104 12.343C74.0261 12.9556 74.6485 13.7882 75.0042 14.7423L72.4427 16.5827C71.81 16.0133 71.5855 14.9558 69.8506 14.9558Z" fill="#0171A3"/>
</svg>
