<svg width="641" height="60" viewBox="0 0 641 60" fill="none" xmlns="http://www.w3.org/2000/svg">
<rect x="0.5" y="0.5" width="640" height="59" rx="4.5" stroke="#C8CBD0"/>
<path d="M608 37C609.846 37 611.543 36.365 612.897 35.312L617.293 39.708L618.707 38.294L614.311 33.898C615.365 32.543 616 30.846 616 29C616 24.589 612.411 21 608 21C603.589 21 600 24.589 600 29C600 33.411 603.589 37 608 37ZM608 23C611.309 23 614 25.691 614 29C614 32.309 611.309 35 608 35C604.691 35 602 32.309 602 29C602 25.691 604.691 23 608 23Z" fill="#FE9015"/>
<path d="M31.392 22.8V34H29.824V24.192H23.328V34H21.744V22.8H31.392ZM38.2606 34.096C37.418 34.096 36.6606 33.9093 35.9886 33.536C35.3166 33.1627 34.7886 32.6507 34.4046 32C34.0313 31.3387 33.8446 30.592 33.8446 29.76C33.8446 28.928 34.0313 28.1867 34.4046 27.536C34.7886 26.8747 35.3166 26.3627 35.9886 26C36.6606 25.6267 37.418 25.44 38.2606 25.44C39.1033 25.44 39.8553 25.6267 40.5166 26C41.1886 26.3627 41.7113 26.8747 42.0846 27.536C42.4686 28.1867 42.6606 28.928 42.6606 29.76C42.6606 30.592 42.4686 31.3387 42.0846 32C41.7113 32.6507 41.1886 33.1627 40.5166 33.536C39.8553 33.9093 39.1033 34.096 38.2606 34.096ZM38.2606 32.752C38.8046 32.752 39.29 32.6293 39.7166 32.384C40.154 32.128 40.4953 31.776 40.7406 31.328C40.986 30.8693 41.1086 30.3467 41.1086 29.76C41.1086 29.1733 40.986 28.656 40.7406 28.208C40.4953 27.7493 40.154 27.3973 39.7166 27.152C39.29 26.9067 38.8046 26.784 38.2606 26.784C37.7166 26.784 37.226 26.9067 36.7886 27.152C36.362 27.3973 36.0206 27.7493 35.7646 28.208C35.5193 28.656 35.3966 29.1733 35.3966 29.76C35.3966 30.3467 35.5193 30.8693 35.7646 31.328C36.0206 31.776 36.362 32.128 36.7886 32.384C37.226 32.6293 37.7166 32.752 38.2606 32.752ZM44.8786 25.52H46.4146V31.696L51.6146 25.52H53.0066V34H51.4706V27.824L46.2866 34H44.8786V25.52ZM59.684 34.096C58.82 34.096 58.0467 33.9093 57.364 33.536C56.692 33.1627 56.164 32.6507 55.78 32C55.396 31.3387 55.204 30.592 55.204 29.76C55.204 28.928 55.396 28.1867 55.78 27.536C56.164 26.8747 56.692 26.3627 57.364 26C58.0467 25.6267 58.82 25.44 59.684 25.44C60.452 25.44 61.1347 25.5947 61.732 25.904C62.34 26.2133 62.8093 26.6613 63.14 27.248L61.972 28C61.7053 27.5947 61.3747 27.2907 60.98 27.088C60.5853 26.8853 60.148 26.784 59.668 26.784C59.1133 26.784 58.612 26.9067 58.164 27.152C57.7267 27.3973 57.38 27.7493 57.124 28.208C56.8787 28.656 56.756 29.1733 56.756 29.76C56.756 30.3573 56.8787 30.8853 57.124 31.344C57.38 31.792 57.7267 32.1387 58.164 32.384C58.612 32.6293 59.1133 32.752 59.668 32.752C60.148 32.752 60.5853 32.6507 60.98 32.448C61.3747 32.2453 61.7053 31.9413 61.972 31.536L63.14 32.272C62.8093 32.8587 62.34 33.312 61.732 33.632C61.1347 33.9413 60.452 34.096 59.684 34.096ZM68.4246 30.416H66.6646V34H65.1286V25.52H66.6646V29.104H68.4566L71.2086 25.52H72.8566L69.6406 29.6L73.0806 34H71.2726L68.4246 30.416ZM85.308 26.864H82.204V34H80.668V26.864H77.564V25.52H85.308V26.864ZM90.1356 34.096C89.293 34.096 88.5356 33.9093 87.8636 33.536C87.1916 33.1627 86.6636 32.6507 86.2796 32C85.9063 31.3387 85.7196 30.592 85.7196 29.76C85.7196 28.928 85.9063 28.1867 86.2796 27.536C86.6636 26.8747 87.1916 26.3627 87.8636 26C88.5356 25.6267 89.293 25.44 90.1356 25.44C90.9783 25.44 91.7303 25.6267 92.3916 26C93.0636 26.3627 93.5863 26.8747 93.9596 27.536C94.3436 28.1867 94.5356 28.928 94.5356 29.76C94.5356 30.592 94.3436 31.3387 93.9596 32C93.5863 32.6507 93.0636 33.1627 92.3916 33.536C91.7303 33.9093 90.9783 34.096 90.1356 34.096ZM90.1356 32.752C90.6796 32.752 91.165 32.6293 91.5916 32.384C92.029 32.128 92.3703 31.776 92.6156 31.328C92.861 30.8693 92.9836 30.3467 92.9836 29.76C92.9836 29.1733 92.861 28.656 92.6156 28.208C92.3703 27.7493 92.029 27.3973 91.5916 27.152C91.165 26.9067 90.6796 26.784 90.1356 26.784C89.5916 26.784 89.101 26.9067 88.6636 27.152C88.237 27.3973 87.8956 27.7493 87.6396 28.208C87.3943 28.656 87.2716 29.1733 87.2716 29.76C87.2716 30.3467 87.3943 30.8693 87.6396 31.328C87.8956 31.776 88.237 32.128 88.6636 32.384C89.101 32.6293 89.5916 32.752 90.1356 32.752ZM102.53 29.6C103.628 29.8773 104.178 30.5653 104.178 31.664C104.178 32.4107 103.895 32.9867 103.33 33.392C102.775 33.7973 101.943 34 100.834 34H96.7536V25.52H100.69C101.692 25.52 102.476 25.712 103.042 26.096C103.607 26.4693 103.89 27.0027 103.89 27.696C103.89 28.144 103.767 28.5333 103.522 28.864C103.287 29.184 102.956 29.4293 102.53 29.6ZM98.2576 29.168H100.562C101.148 29.168 101.591 29.0613 101.89 28.848C102.199 28.6347 102.354 28.3253 102.354 27.92C102.354 27.1093 101.756 26.704 100.562 26.704H98.2576V29.168ZM100.722 32.816C101.362 32.816 101.842 32.7147 102.162 32.512C102.482 32.3093 102.642 31.9947 102.642 31.568C102.642 31.1307 102.492 30.8053 102.194 30.592C101.906 30.3787 101.447 30.272 100.818 30.272H98.2576V32.816H100.722ZM109.606 25.44C110.779 25.44 111.675 25.728 112.294 26.304C112.923 26.88 113.238 27.7387 113.238 28.88V34H111.782V32.88C111.526 33.2747 111.158 33.5787 110.678 33.792C110.208 33.9947 109.648 34.096 108.998 34.096C108.048 34.096 107.286 33.8667 106.71 33.408C106.144 32.9493 105.862 32.3467 105.862 31.6C105.862 30.8533 106.134 30.256 106.678 29.808C107.222 29.3493 108.086 29.12 109.27 29.12H111.702V28.816C111.702 28.1547 111.51 27.648 111.126 27.296C110.742 26.944 110.176 26.768 109.43 26.768C108.928 26.768 108.438 26.8533 107.958 27.024C107.478 27.184 107.072 27.4027 106.742 27.68L106.102 26.528C106.539 26.176 107.062 25.9093 107.67 25.728C108.278 25.536 108.923 25.44 109.606 25.44ZM109.254 32.912C109.84 32.912 110.347 32.784 110.774 32.528C111.2 32.2613 111.51 31.888 111.702 31.408V30.224H109.334C108.032 30.224 107.382 30.6613 107.382 31.536C107.382 31.9627 107.547 32.2987 107.878 32.544C108.208 32.7893 108.667 32.912 109.254 32.912ZM120.5 25.44C121.321 25.44 122.057 25.6213 122.708 25.984C123.358 26.3467 123.865 26.8533 124.228 27.504C124.601 28.1547 124.788 28.9067 124.788 29.76C124.788 30.6133 124.601 31.3707 124.228 32.032C123.865 32.6827 123.358 33.1893 122.708 33.552C122.057 33.9147 121.321 34.096 120.5 34.096C119.892 34.096 119.332 33.9787 118.82 33.744C118.318 33.5093 117.892 33.168 117.54 32.72V37.104H116.004V25.52H117.476V26.864C117.817 26.3947 118.249 26.0427 118.772 25.808C119.294 25.5627 119.87 25.44 120.5 25.44ZM120.372 32.752C120.916 32.752 121.401 32.6293 121.828 32.384C122.265 32.128 122.606 31.776 122.852 31.328C123.108 30.8693 123.236 30.3467 123.236 29.76C123.236 29.1733 123.108 28.656 122.852 28.208C122.606 27.7493 122.265 27.3973 121.828 27.152C121.401 26.9067 120.916 26.784 120.372 26.784C119.838 26.784 119.353 26.912 118.916 27.168C118.489 27.4133 118.148 27.76 117.892 28.208C117.646 28.656 117.524 29.1733 117.524 29.76C117.524 30.3467 117.646 30.8693 117.892 31.328C118.137 31.776 118.478 32.128 118.916 32.384C119.353 32.6293 119.838 32.752 120.372 32.752ZM130.651 34.096C129.809 34.096 129.051 33.9093 128.379 33.536C127.707 33.1627 127.179 32.6507 126.795 32C126.422 31.3387 126.235 30.592 126.235 29.76C126.235 28.928 126.422 28.1867 126.795 27.536C127.179 26.8747 127.707 26.3627 128.379 26C129.051 25.6267 129.809 25.44 130.651 25.44C131.494 25.44 132.246 25.6267 132.907 26C133.579 26.3627 134.102 26.8747 134.475 27.536C134.859 28.1867 135.051 28.928 135.051 29.76C135.051 30.592 134.859 31.3387 134.475 32C134.102 32.6507 133.579 33.1627 132.907 33.536C132.246 33.9093 131.494 34.096 130.651 34.096ZM130.651 32.752C131.195 32.752 131.681 32.6293 132.107 32.384C132.545 32.128 132.886 31.776 133.131 31.328C133.377 30.8693 133.499 30.3467 133.499 29.76C133.499 29.1733 133.377 28.656 133.131 28.208C132.886 27.7493 132.545 27.3973 132.107 27.152C131.681 26.9067 131.195 26.784 130.651 26.784C130.107 26.784 129.617 26.9067 129.179 27.152C128.753 27.3973 128.411 27.7493 128.155 28.208C127.91 28.656 127.787 29.1733 127.787 29.76C127.787 30.3467 127.91 30.8693 128.155 31.328C128.411 31.776 128.753 32.128 129.179 32.384C129.617 32.6293 130.107 32.752 130.651 32.752ZM143.045 29.6C144.144 29.8773 144.693 30.5653 144.693 31.664C144.693 32.4107 144.411 32.9867 143.845 33.392C143.291 33.7973 142.459 34 141.349 34H137.269V25.52H141.205C142.208 25.52 142.992 25.712 143.557 26.096C144.123 26.4693 144.405 27.0027 144.405 27.696C144.405 28.144 144.283 28.5333 144.037 28.864C143.803 29.184 143.472 29.4293 143.045 29.6ZM138.773 29.168H141.077C141.664 29.168 142.107 29.0613 142.405 28.848C142.715 28.6347 142.869 28.3253 142.869 27.92C142.869 27.1093 142.272 26.704 141.077 26.704H138.773V29.168ZM141.237 32.816C141.877 32.816 142.357 32.7147 142.677 32.512C142.997 32.3093 143.157 31.9947 143.157 31.568C143.157 31.1307 143.008 30.8053 142.709 30.592C142.421 30.3787 141.963 30.272 141.333 30.272H138.773V32.816H141.237Z" fill="#848992"/>
</svg>
